<svg width="155" height="29" viewBox="0 0 155 29" fill="none" xmlns="http://www.w3.org/2000/svg">
<path d="M0.775879 1.60645C0.775879 0.99707 1.10596 0.692383 1.76611 0.692383H5.38428C6.81885 0.692383 7.92334 1.29541 8.69775 2.50146L14.8677 12.0039L21.0186 2.50146C21.8057 1.29541 22.9102 0.692383 24.332 0.692383H27.9692C28.6167 0.692383 28.9404 0.99707 28.9404 1.60645C28.9404 1.88574 28.8389 2.18408 28.6357 2.50146L18.4478 18.25V26.248C18.4478 26.7432 18.27 27.1621 17.9146 27.5049C17.5718 27.835 17.1528 28 16.6577 28H13.0776C12.5825 28 12.1572 27.835 11.8018 27.5049C11.4463 27.1621 11.2686 26.7432 11.2686 26.248V18.25L1.09961 2.50146C0.883789 2.18408 0.775879 1.88574 0.775879 1.60645ZM56.3052 25.1816C53.7153 27.4541 49.9067 28.5903 44.8794 28.5903C39.8647 28.5903 36.0562 27.4541 33.4536 25.1816C30.8511 22.8965 29.5498 19.2847 29.5498 14.3462C29.5498 9.40771 30.8511 5.80225 33.4536 3.52979C36.0562 1.25732 39.8647 0.121094 44.8794 0.121094C49.9067 0.121094 53.7153 1.25732 56.3052 3.52979C58.9077 5.80225 60.209 9.40771 60.209 14.3462C60.209 19.2847 58.9077 22.8965 56.3052 25.1816ZM51.1064 7.54785C49.8242 6.02441 47.7485 5.2627 44.8794 5.2627C42.0229 5.2627 39.9473 6.02441 38.6523 7.54785C37.3701 9.07129 36.729 11.3438 36.729 14.3652C36.729 17.374 37.3701 19.6401 38.6523 21.1636C39.9473 22.6743 42.0229 23.4297 44.8794 23.4297C47.7485 23.4297 49.8242 22.6743 51.1064 21.1636C52.3887 19.6401 53.0298 17.374 53.0298 14.3652C53.0298 11.3438 52.3887 9.07129 51.1064 7.54785ZM64.1318 2.50146C64.1318 2.00635 64.3096 1.58105 64.665 1.22559C65.0205 0.870117 65.4458 0.692383 65.9409 0.692383H81.4229C85.2188 0.692383 88.0181 1.78418 89.8208 3.96777C90.8237 5.17383 91.3252 6.71631 91.3252 8.59521C91.3252 10.4614 90.4683 12.0928 88.7544 13.4893C91.1919 14.7969 92.4106 16.8281 92.4106 19.583C92.4106 22.3379 91.4331 24.4326 89.478 25.8672C87.5356 27.2891 85.1489 28 82.3179 28H65.9409C65.4458 28 65.0205 27.8286 64.665 27.4858C64.3096 27.1304 64.1318 26.7051 64.1318 26.21V2.50146ZM71.311 22.8584H82.2036C83.1812 22.8584 83.9302 22.5664 84.4507 21.9824C84.9712 21.3984 85.2314 20.5986 85.2314 19.583C85.2314 18.5674 84.9712 17.7676 84.4507 17.1836C83.9302 16.5996 83.1812 16.3076 82.2036 16.3076H71.311V22.8584ZM71.311 11.2993H81.499C82.2988 11.2993 82.9399 11.0645 83.4224 10.5947C83.9048 10.1123 84.146 9.4458 84.146 8.59521C84.146 7.73193 83.9048 7.05908 83.4224 6.57666C82.9399 6.09424 82.2988 5.85303 81.499 5.85303H71.311V11.2993ZM121.508 25.1816C118.918 27.4541 115.11 28.5903 110.083 28.5903C105.068 28.5903 101.259 27.4541 98.6567 25.1816C96.0542 22.8965 94.7529 19.2847 94.7529 14.3462C94.7529 9.40771 96.0542 5.80225 98.6567 3.52979C101.259 1.25732 105.068 0.121094 110.083 0.121094C115.11 0.121094 118.918 1.25732 121.508 3.52979C124.111 5.80225 125.412 9.40771 125.412 14.3462C125.412 19.2847 124.111 22.8965 121.508 25.1816ZM116.31 7.54785C115.027 6.02441 112.952 5.2627 110.083 5.2627C107.226 5.2627 105.15 6.02441 103.855 7.54785C102.573 9.07129 101.932 11.3438 101.932 14.3652C101.932 17.374 102.573 19.6401 103.855 21.1636C105.15 22.6743 107.226 23.4297 110.083 23.4297C112.952 23.4297 115.027 22.6743 116.31 21.1636C117.592 19.6401 118.233 17.374 118.233 14.3652C118.233 11.3438 117.592 9.07129 116.31 7.54785ZM126.421 4.2915V2.50146C126.421 1.98096 126.593 1.54932 126.936 1.20654C127.278 0.86377 127.71 0.692383 128.23 0.692383H152.396C152.917 0.692383 153.348 0.86377 153.691 1.20654C154.034 1.54932 154.205 1.98096 154.205 2.50146V4.2915C154.205 4.81201 154.034 5.24365 153.691 5.58643C153.348 5.9165 152.917 6.08154 152.396 6.08154H143.903V26.248C143.903 26.7432 143.725 27.1621 143.37 27.5049C143.027 27.835 142.608 28 142.113 28H138.514C138.019 28 137.593 27.835 137.238 27.5049C136.895 27.1621 136.724 26.7432 136.724 26.248V6.08154H128.23C127.71 6.08154 127.278 5.9165 126.936 5.58643C126.593 5.24365 126.421 4.81201 126.421 4.2915Z" fill="white"/>
</svg>
