<svg width="155" height="29" viewBox="0 0 155 29" fill="none" xmlns="http://www.w3.org/2000/svg">
    <path d="M.776 1.606c0-.609.33-.914.99-.914h3.618c1.435 0 2.54.603 3.314 1.81l6.17 9.502 6.15-9.503C21.807 1.295 22.91.692 24.333.692h3.637c.648 0 .971.305.971.914 0 .28-.101.578-.304.895L18.448 18.25v7.998c0 .495-.178.914-.533 1.257-.343.33-.762.495-1.257.495h-3.58a1.81 1.81 0 0 1-1.276-.495 1.679 1.679 0 0 1-.533-1.257V18.25L1.099 2.501c-.215-.317-.323-.615-.323-.895zm55.53 23.576c-2.59 2.272-6.4 3.408-11.427 3.408-5.014 0-8.823-1.136-11.425-3.408-2.603-2.285-3.904-5.897-3.904-10.836 0-4.938 1.301-8.544 3.904-10.816C36.056 1.257 39.864.12 44.879.12c5.028 0 8.836 1.136 11.426 3.409 2.603 2.272 3.904 5.878 3.904 10.816 0 4.939-1.301 8.55-3.904 10.836zm-5.2-17.634c-1.282-1.524-3.358-2.285-6.227-2.285-2.856 0-4.932.761-6.227 2.285-1.282 1.523-1.923 3.796-1.923 6.817 0 3.009.641 5.275 1.923 6.799 1.295 1.51 3.37 2.266 6.227 2.266 2.87 0 4.945-.756 6.227-2.266 1.283-1.524 1.924-3.79 1.924-6.799 0-3.021-.641-5.294-1.924-6.817zM64.132 2.5c0-.495.178-.92.533-1.275.355-.356.78-.534 1.276-.534h15.482c3.796 0 6.595 1.092 8.398 3.276 1.003 1.206 1.504 2.748 1.504 4.627 0 1.866-.857 3.498-2.57 4.894 2.437 1.308 3.656 3.34 3.656 6.094 0 2.755-.978 4.85-2.933 6.284C87.536 27.29 85.148 28 82.318 28H65.94c-.495 0-.92-.171-1.276-.514a1.74 1.74 0 0 1-.533-1.276V2.501zm7.179 20.357h10.893c.977 0 1.726-.292 2.247-.876.52-.584.78-1.383.78-2.399s-.26-1.815-.78-2.4c-.52-.583-1.27-.875-2.247-.875H71.31v6.55zm0-11.559h10.188c.8 0 1.44-.234 1.923-.704.483-.483.724-1.15.724-2 0-.863-.241-1.536-.724-2.018-.482-.483-1.123-.724-1.923-.724H71.311v5.446zm50.197 13.883c-2.59 2.272-6.398 3.408-11.425 3.408-5.015 0-8.824-1.136-11.426-3.408-2.603-2.285-3.904-5.897-3.904-10.836 0-4.938 1.301-8.544 3.904-10.816C101.259 1.257 105.068.12 110.083.12c5.027 0 8.835 1.136 11.425 3.409 2.603 2.272 3.904 5.878 3.904 10.816 0 4.939-1.301 8.55-3.904 10.836zM116.31 7.548c-1.283-1.524-3.358-2.285-6.227-2.285-2.857 0-4.933.761-6.228 2.285-1.282 1.523-1.923 3.796-1.923 6.817 0 3.009.641 5.275 1.923 6.799 1.295 1.51 3.371 2.266 6.228 2.266 2.869 0 4.944-.756 6.227-2.266 1.282-1.524 1.923-3.79 1.923-6.799 0-3.021-.641-5.294-1.923-6.817zm10.111-3.256v-1.79c0-.521.172-.953.515-1.295.342-.343.774-.515 1.294-.515h24.166c.521 0 .952.172 1.295.515.343.342.514.774.514 1.294v1.79c0 .521-.171.953-.514 1.295-.343.33-.774.496-1.295.496h-8.493v20.166c0 .495-.178.914-.533 1.257-.343.33-.762.495-1.257.495h-3.599a1.81 1.81 0 0 1-1.276-.495 1.709 1.709 0 0 1-.514-1.257V6.082h-8.494c-.52 0-.952-.165-1.294-.496-.343-.342-.515-.774-.515-1.295z" fill="#fff"/>
</svg>
